HIERARCHY
ROOT Hips
{
	OFFSET 0.00 0.00 0.00
	CHANNELS 6 Xposition Yposition Zposition Xrotation Yrotation Zrotation
	JOINT Spine
	{
		OFFSET 0.00000 1.15266 1.72900
		CHANNELS 3 Xrotation Yrotation Zrotation
		JOINT Spine1
		{
			OFFSET 0.00000 0.40032 2.27031
			CHANNELS 3 Xrotation Yrotation Zrotation
			JOINT Spine2
			{
				OFFSET 0.00000 0.20092 2.29656
				CHANNELS 3 Xrotation Yrotation Zrotation
				JOINT Spine3
				{
					OFFSET 0.00000 0.00000 2.30533
					CHANNELS 3 Xrotation Yrotation Zrotation
					JOINT Neck
					{
						OFFSET 0.00000 -0.86449 6.05149
						CHANNELS 3 Xrotation Yrotation Zrotation
						JOINT Head
						{
							OFFSET 0.00000 -0.55043 3.12167
							CHANNELS 3 Xrotation Yrotation Zrotation
							End Site
							{
								OFFSET 0.00000 0.00000 3.73175
							}
						}
					}
					JOINT RightShoulder
					{
						OFFSET -0.78828 -1.31380 4.25672
						CHANNELS 3 Xrotation Yrotation Zrotation
						JOINT RightArm
						{
							OFFSET -3.91513 0.00000 0.00000
							CHANNELS 3 Xrotation Yrotation Zrotation
							JOINT RightForeArm
							{
								OFFSET -6.91491 0.00000 0.00000
								CHANNELS 3 Xrotation Yrotation Zrotation
								JOINT RightHand
								{
									OFFSET -6.09622 0.00000 0.00000
									CHANNELS 3 Xrotation Yrotation Zrotation
									JOINT RightHandEnd
									{
										OFFSET -1.74995 0.00000 0.00000
										CHANNELS 3 Xrotation Yrotation Zrotation
										End Site
										{
											OFFSET -1.74995 0.00000 0.00000
										}
									}
									JOINT RightHandThumb1
									{
										OFFSET -0.69998 -1.16663 -0.46665
										CHANNELS 3 Yrotation Xrotation Zrotation
										End Site
										{
											OFFSET -1.69032 -0.45292 0.00000
										}
									}
								}
							}
						}
					}
					JOINT LeftShoulder
					{
						OFFSET 0.78828 -1.31380 4.25672
						CHANNELS 3 Xrotation Yrotation Zrotation
						JOINT LeftArm
						{
							OFFSET 3.91513 0.00000 0.00000
							CHANNELS 3 Xrotation Yrotation Zrotation
							JOINT LeftForeArm
							{
								OFFSET 6.91491 0.00000 0.00000
								CHANNELS 3 Xrotation Yrotation Zrotation
								JOINT LeftHand
								{
									OFFSET 6.09622 0.00000 0.00000
									CHANNELS 3 Xrotation Yrotation Zrotation
									JOINT LeftHandEnd
									{
										OFFSET 1.74995 0.00000 0.00000
										CHANNELS 3 Xrotation Yrotation Zrotation
										End Site
										{
											OFFSET 1.74995 0.00000 0.00000
										}
									}
									JOINT LeftHandThumb1
									{
										OFFSET 0.69998 -1.16663 -0.46665
										CHANNELS 3 Yrotation Xrotation Zrotation
										End Site
										{
											OFFSET 1.69032 -0.45292 0.00000
										}
									}
								}
							}
						}
					}
				}
			}
		}
	}
	JOINT RightUpLeg
	{
		OFFSET -2.33857 0.00000 -0.68318
		CHANNELS 3 Xrotation Yrotation Zrotation
		JOINT RightLeg
		{
			OFFSET 0.00000 0.00000 -10.74496
			CHANNELS 3 Xrotation Yrotation Zrotation
			JOINT RightFoot
			{
				OFFSET 0.00000 0.00000 -10.93085
				CHANNELS 3 Xrotation Yrotation Zrotation
				JOINT RightToeBase
				{
					OFFSET 0.00000 -4.08727 -1.48765
					CHANNELS 3 Xrotation Yrotation Zrotation
					End Site
					{
						OFFSET 0.00000 -1.89187 -0.00000
					}
				}
			}
		}
	}
	JOINT LeftUpLeg
	{
		OFFSET 2.33857 0.00000 -0.68318
		CHANNELS 3 Xrotation Yrotation Zrotation
		JOINT LeftLeg
		{
			OFFSET 0.00000 0.00000 -10.74496
			CHANNELS 3 Xrotation Yrotation Zrotation
			JOINT LeftFoot
			{
				OFFSET 0.00000 0.00000 -10.93085
				CHANNELS 3 Xrotation Yrotation Zrotation
				JOINT LeftToeBase
				{
					OFFSET 0.00000 -4.08727 -1.48765
					CHANNELS 3 Xrotation Yrotation Zrotation
					End Site
					{
						OFFSET 0.00000 -1.89187 -0.00000
					}
				}
			}
		}
	}
}
MOTION
Frames: 7
Frame Time: 0.008342
 -4.2744 83.8335 23.9749 -4.8315 6.9643 52.2093 8.2632 1.2386 -1.4132 2.4874 0.0437 -0.0533 11.1918 -0.9309 3.9168 -0.2457 -2.8735 1.3681 -8.6374 -8.7992 -12.7158 9.7500 -8.3573 -17.1861 12.4160 -10.0812 2.1931 -11.9745 -56.1945 -11.5222 -0.0000 0.0001 71.9187 -16.7048 29.1631 1.3258 0.0000 0.0000 -0.0000 -0.0000 0.0000 0.0000 15.4307 17.9317 1.8046 33.1886 46.1489 -33.2992 -0.0000 -0.0001 -68.7731 -15.2221 -30.2579 -20.3051 -0.0000 0.0000 0.0000 -0.0000 -0.0000 0.0000 -35.1449 -12.3800 2.1564 54.7068 0.0000 0.0000 -11.8215 0.3730 -6.7379 -4.1493 0.0000 -0.0000 -8.1974 -16.9936 7.3911 33.6895 0.0000 0.0000 -20.5663 11.6673 -3.7650 -5.4752 0.0000 -0.0000
 -4.2836 83.9080 23.9377 -4.6634 6.8316 49.7858 8.3437 1.1248 -1.3719 2.5054 0.0228 -0.0118 11.2975 -0.4476 4.6784 -0.1967 -2.7120 1.4582 -8.7689 -8.5367 -12.4754 9.6408 -8.4849 -17.1762 12.5170 -9.1004 2.6375 -12.4538 -56.5537 -12.0437 -0.0000 0.0001 71.7470 -16.8881 29.3468 1.1791 0.0000 0.0000 0.0000 0.0000 -0.0000 0.0000 15.2623 18.2248 1.8862 32.6166 46.9230 -33.7886 -0.0000 -0.0001 -68.1906 -14.9040 -30.1066 -19.9818 -0.0000 -0.0000 -0.0000 0.0000 -0.0000 -0.0000 -35.2840 -12.3691 1.8306 55.2523 0.0000 0.0000 -12.1151 0.3425 -7.0895 -4.0311 0.0000 -0.0000 -7.3883 -17.0689 6.9776 33.9034 0.0000 0.0000 -20.6242 12.0786 -5.8251 -5.2812 0.0000 -0.0000
 -4.2944 83.9813 23.8946 -4.4146 6.7177 47.4228 8.3882 1.0444 -1.3388 2.5152 0.0024 0.0328 11.3881 0.0432 5.4322 -0.1548 -2.5317 1.5469 -8.9299 -8.2916 -12.2740 9.5198 -8.6162 -17.1654 12.5358 -8.2286 3.0182 -12.7197 -56.8300 -12.3645 -0.0000 0.0001 71.5721 -17.0028 29.4370 1.0460 -0.0000 -0.0000 0.0000 -0.0000 -0.0000 -0.0000 15.0675 18.5497 1.9860 31.9826 47.5664 -34.2412 -0.0000 -0.0001 -67.6113 -14.3084 -29.9194 -19.6896 0.0000 -0.0000 -0.0000 -0.0000 0.0000 0.0000 -35.5248 -12.2749 1.4665 55.7361 0.0000 0.0000 -12.4659 0.3165 -7.4994 -3.9497 0.0000 -0.0000 -6.5506 -17.0626 6.7628 33.8878 0.0000 0.0000 -20.7961 12.4419 -7.8597 -4.8903 0.0000 -0.0000
 -4.3057 84.0537 23.8460 -4.1008 6.6085 45.1365 8.4194 0.9958 -1.3110 2.5206 -0.0339 0.0746 11.4544 0.5425 6.1493 -0.1234 -2.3350 1.6350 -9.1168 -8.0635 -12.1061 9.3946 -8.7362 -17.1439 12.4702 -7.4758 3.3317 -12.7557 -57.0183 -12.4667 -0.0000 0.0001 71.4041 -17.0403 29.4269 0.9337 0.0000 0.0000 -0.0000 0.0000 -0.0000 -0.0000 14.8570 18.9087 2.0968 31.2787 48.0720 -34.6348 -0.0000 -0.0001 -67.0412 -13.4665 -29.7230 -19.4417 -0.0000 0.0000 0.0000 0.0000 -0.0000 0.0000 -35.8433 -12.0967 1.0431 56.1565 0.0000 0.0000 -12.8490 0.2930 -7.9504 -3.9082 0.0000 -0.0000 -5.6745 -16.9401 6.6977 33.6377 0.0000 0.0000 -21.1386 12.7292 -9.6682 -4.3657 0.0000 -0.0000
 -4.3162 84.1245 23.7925 -3.7558 6.4815 42.9431 8.4801 0.9509 -1.2893 2.5186 -0.0658 0.1166 11.4919 1.0458 6.8070 -0.1047 -2.1301 1.7091 -9.3243 -7.8520 -11.9547 9.2723 -8.8354 -17.1028 12.3278 -6.8499 3.5923 -12.5785 -57.1137 -12.3617 -0.0000 0.0001 71.2560 -16.9854 29.3181 0.8500 0.0000 0.0000 0.0000 0.0000 -0.0000 -0.0000 14.6349 19.2977 2.2247 30.5085 48.4374 -34.9595 -0.0000 -0.0001 -66.4866 -12.4449 -29.5457 -19.2451 -0.0000 0.0000 -0.0000 -0.0000 -0.0000 -0.0000 -36.1916 -11.8411 0.5506 56.5113 0.0000 0.0000 -13.2419 0.2754 -8.4251 -3.9098 0.0000 -0.0000 -4.7368 -16.6725 6.7089 33.1627 0.0000 0.0000 -21.6956 12.9139 -11.0727 -3.7808 0.0000 -0.0000
 -4.3270 84.1975 23.7328 -3.2879 6.3687 40.8448 8.4804 0.9878 -1.2754 2.5207 -0.1389 0.1509 11.4981 1.5216 7.3818 -0.1028 -1.8980 1.7704 -9.5527 -7.6543 -11.8107 9.1562 -8.8969 -17.0324 12.1106 -6.3441 3.8038 -12.2212 -57.1189 -12.0727 -0.0000 0.0001 71.1335 -16.8333 29.1049 0.8065 0.0000 0.0000 0.0000 0.0000 0.0000 0.0000 14.4029 19.7175 2.3489 29.6589 48.6812 -35.1790 -0.0000 -0.0001 -65.9602 -11.3144 -29.4095 -19.1045 0.0000 -0.0000 0.0000 0.0000 -0.0000 0.0000 -36.6860 -11.4679 0.0011 56.8389 0.0000 0.0000 -13.6239 0.2625 -8.8942 -3.9509 0.0000 -0.0000 -3.8933 -16.1853 6.6885 32.5312 0.0000 0.0000 -22.4996 12.9487 -11.9207 -3.2055 0.0000 -0.0000
 -4.3363 84.2682 23.6684 -2.8112 6.2361 38.8633 8.5209 1.0357 -1.2635 2.5264 -0.2258 0.1792 11.4715 1.9748 7.8646 -0.1206 -1.6617 1.8087 -9.7951 -7.4700 -11.6635 9.0525 -8.9151 -16.9272 11.8402 -5.9636 3.9854 -11.7470 -57.0277 -11.6562 -0.0000 0.0001 71.0571 -16.5769 28.8047 0.8048 0.0000 0.0000 -0.0000 0.0000 -0.0000 -0.0000 14.1838 20.1566 2.4663 28.7306 48.8052 -35.3019 -0.0000 -0.0001 -65.4651 -10.1685 -29.3433 -19.0143 -0.0000 0.0000 0.0000 -0.0000 -0.0000 0.0000 -37.1914 -11.0380 -0.6100 57.1118 0.0000 0.0000 -13.9791 0.2683 -9.3580 -4.0228 0.0000 -0.0000 -3.0574 -15.5286 6.5681 31.7783 0.0000 0.0000 -23.5568 12.8024 -12.1445 -2.6921 0.0000 -0.0000
